<?xml version="1.0" encoding="UTF-8" standalone="no"?>
<!-- Created with Inkscape (http://www.inkscape.org/) -->

<svg
   width="89.366516mm"
   height="18.890785mm"
   viewBox="0 0 89.366516 18.890785"
   version="1.1"
   id="svg5"
   xml:space="preserve"
   inkscape:export-filename="logo-light.svg"
   inkscape:export-xdpi="96"
   inkscape:export-ydpi="96"
   xmlns:inkscape="http://www.inkscape.org/namespaces/inkscape"
   xmlns:sodipodi="http://sodipodi.sourceforge.net/DTD/sodipodi-0.dtd"
   xmlns="http://www.w3.org/2000/svg"
   xmlns:svg="http://www.w3.org/2000/svg"><sodipodi:namedview
     id="namedview7"
     pagecolor="#ffffff"
     bordercolor="#000000"
     borderopacity="0.25"
     inkscape:showpageshadow="2"
     inkscape:pageopacity="0.0"
     inkscape:pagecheckerboard="0"
     inkscape:deskcolor="#d1d1d1"
     inkscape:document-units="mm"
     showgrid="false" /><defs
     id="defs2"><rect
       x="187.72839"
       y="104.5209"
       width="328.68668"
       height="120.70162"
       id="rect2604" /></defs><g
     inkscape:label="Layer 1"
     inkscape:groupmode="layer"
     id="layer1"
     transform="translate(-29.223934,-130.39836)"><g
       aria-label="hTorrent"
       transform="matrix(1.9001331,0,0,1.9001331,-329.35919,-54.045088)"
       id="text2602"
       style="font-size:11.8822px;line-height:0;font-family:Overpass;-inkscape-font-specification:Overpass;white-space:pre;shape-inside:url(#rect2604)"><path
         d="m 188.71474,106.86789 v -8.10366 l 1.03375,-0.475288 v 3.136898 q 0.27923,-0.38617 0.67134,-0.57628 0.39806,-0.19606 0.89711,-0.19606 0.79017,0 1.26545,0.32676 0.48123,0.32676 0.69511,0.93869 0.21388,0.606 0.21388,1.45557 v 3.49337 h -1.03375 v -3.6716 q 0,-0.71293 -0.32082,-1.15257 -0.31488,-0.43964 -0.98622,-0.43964 -0.69511,0 -1.05158,0.39805 -0.35052,0.39211 -0.35052,1.1704 v 3.69536 z"
         id="path3011" /><path
         d="m 196.77085,106.86789 v -7.331317 h -2.31703 V 98.55035 h 5.66781 v 0.986223 h -2.31703 v 7.331317 z"
         id="path3013" /><path
         d="m 202.9971,107.01048 q -1.24763,0 -1.9665,-0.84958 -0.71887,-0.85552 -0.71887,-2.32297 0,-0.98028 0.32676,-1.69321 0.32676,-0.71294 0.92681,-1.09911 0.60599,-0.39211 1.4318,-0.39211 0.83176,0 1.43181,0.38617 0.60599,0.38023 0.92681,1.09316 0.32676,0.71294 0.32676,1.69322 0,0.98028 -0.32676,1.69915 -0.32676,0.71293 -0.93275,1.09911 -0.60005,0.38617 -1.42587,0.38617 z m 0,-0.96246 q 0.76641,0 1.20011,-0.58817 0.43964,-0.59411 0.43964,-1.6338 0,-1.04564 -0.43964,-1.63381 -0.4337,-0.58816 -1.20011,-0.58816 -0.77234,0 -1.20604,0.58816 -0.4337,0.58223 -0.4337,1.64569 0,1.03969 0.4337,1.62786 0.4337,0.58223 1.20604,0.58223 z"
         id="path3015" /><path
         d="m 207.23902,106.86789 v -6.0718 h 1.03375 v 0.7961 q 0.20794,-0.4634 0.57035,-0.70105 0.36835,-0.23764 0.8674,-0.23764 0.55252,0 0.93869,0.30894 l -0.15447,0.97434 q -0.19605,-0.13665 -0.40993,-0.19606 -0.20794,-0.0653 -0.45747,-0.0653 -0.40993,0 -0.71293,0.21982 -0.303,0.21982 -0.47529,0.61787 -0.16635,0.39806 -0.16635,0.93276 v 3.42207 z"
         id="path3017" /><path
         d="m 211.80177,106.86789 v -6.0718 h 1.03375 v 0.7961 q 0.20794,-0.4634 0.57035,-0.70105 0.36835,-0.23764 0.8674,-0.23764 0.55252,0 0.93869,0.30894 l -0.15446,0.97434 q -0.19606,-0.13665 -0.40994,-0.19606 -0.20794,-0.0653 -0.45747,-0.0653 -0.40993,0 -0.71293,0.21982 -0.30299,0.21982 -0.47529,0.61787 -0.16635,0.39806 -0.16635,0.93276 v 3.42207 z"
         id="path3019" /><path
         d="m 218.46767,107.01048 q -0.83176,0 -1.43775,-0.40994 -0.60599,-0.40993 -0.93275,-1.12881 -0.32676,-0.71887 -0.32676,-1.64568 0,-1.00405 0.33864,-1.71104 0.33864,-0.71293 0.94464,-1.08722 0.60599,-0.37429 1.41398,-0.37429 0.68322,0 1.25357,0.30894 0.57035,0.30299 0.90899,0.94463 0.34458,0.6357 0.34458,1.6338 0,0.14259 -0.0119,0.33271 -0.006,0.18417 -0.0238,0.38023 h -4.11125 q 0.0594,0.55252 0.27329,0.9684 0.21388,0.41587 0.56441,0.65352 0.35052,0.2317 0.82581,0.2317 0.38617,0 0.71293,-0.13665 0.33271,-0.13664 0.61788,-0.42181 l 0.60599,0.67728 q -0.33864,0.33864 -0.84364,0.56441 -0.49905,0.21982 -1.11692,0.21982 z m -1.65163,-3.65972 h 3.11314 q 0,-0.51688 -0.17229,-0.92087 -0.16635,-0.40994 -0.49311,-0.64164 -0.32677,-0.2317 -0.79611,-0.2317 -0.65946,0 -1.13475,0.42776 -0.46935,0.42776 -0.51688,1.36645 z"
         id="path3021" /><path
         d="m 222.63828,106.86789 v -6.0718 h 1.03375 v 0.61787 q 0.27923,-0.38617 0.67134,-0.57035 0.39211,-0.19011 0.89711,-0.19011 1.10504,0 1.63974,0.67134 0.5347,0.66541 0.5347,2.04968 v 3.49337 h -1.03375 v -3.6716 q 0,-0.7664 -0.34458,-1.17634 -0.33865,-0.41587 -0.96246,-0.41587 -0.69511,0 -1.05158,0.39805 -0.35052,0.39211 -0.35052,1.1704 v 3.69536 z"
         id="path3023" /><path
         d="m 230.83698,107.01048 c -0.41588,0 -0.73472,-0.12476 -0.95652,-0.37429 -0.21784,-0.24953 -0.32676,-0.60797 -0.32676,-1.07534 v -3.86172 h -0.98622 v -0.90304 h 0.98622 v -2.008096 l 1.03375,-0.235729 v 2.243825 h 1.49716 v 0.90304 h -1.49716 v 3.51713 c 0,0.28913 0.0495,0.50103 0.14853,0.6357 0.10298,0.13071 0.26339,0.19606 0.48123,0.19606 0.27725,0 0.57827,-0.10694 0.90305,-0.32082 l -0.11883,1.00999 c -0.17823,0.0951 -0.36439,0.16436 -0.55846,0.20793 -0.19011,0.0436 -0.39211,0.0654 -0.60599,0.0654 z"
         id="path3025"
         sodipodi:nodetypes="ccsccccccccccscsccccc" /></g><path
       d="m 49.708699,133.21923 h -9.373148 l -0.0027,-2.136 c 0,-0.27991 -0.165611,-0.53298 -0.422216,-0.64461 -0.254612,-0.085 -0.553481,-0.0364 -0.75858,0.15526 l -3.281628,3.04724 c -0.300024,0.27846 -0.300024,0.75273 0,1.03106 l 3.281628,3.04721 c 0.204863,0.18989 0.503083,0.24091 0.759754,0.12903 0.256981,-0.11116 0.421042,-0.3661 0.421042,-0.64447 l 0.0027,-2.10961 h 65.637329 c 0,-1.0137 2.1707,-1.01746 2.1707,-1.87522 z"
       id="path2487"
       style="stroke-width:0.0293001"
       sodipodi:nodetypes="sccccccccccccs" /><path
       d="m 104.54092,135.08791 h 9.36365 l 0.002,2.10746 c 0,0.27946 0.16543,0.53245 0.42179,0.64395 0.25624,0.11153 0.5541,0.061 0.75899,-0.12899 l 3.2783,-3.04412 c 0.29973,-0.27808 0.29973,-0.75198 0,-1.03002 l -3.27833,-3.04415 c -0.20467,-0.18971 -0.50257,-0.24053 -0.75898,-0.129 -0.25635,0.1118 -0.42179,0.36473 -0.42179,0.64396 l -0.002,2.1076 -9.36363,0.005 v 1.8688 z"
       style="stroke-width:0.0292706"
       id="path2866"
       sodipodi:nodetypes="cccccccccccccc"
       inkscape:export-filename="logo-light.svg"
       inkscape:export-xdpi="96"
       inkscape:export-ydpi="96" /></g></svg>
